# xmcd CD database file generated by Grip 3.3.0
# 
# Track frame offsets:
#       187
#       14960
#       28497
#       45560
#       54857
#       65280
#       75257
#       88447
#       100530
#       114702
#       120272
#       131752
# 
# Disc length: 2048 seconds
# 
# Revision: 4
# Processed by: cddbd v1.5.1PL2 Copyright (c) Steve Scherf et al.
# Submitted via: Grip 3.3.0
# 
DISCID=9b07fe0c
DTITLE=Raul Seixas - Gitã
DYEAR=1974
DGENRE=Rock
TTITLE0=Super-Heróis
TTITLE1=Medo Da Chuva
TTITLE2=As Aventuras De Raul Seixas Na Cidade De Thor
TTITLE3=Água Viva
TTITLE4=Moleque Maravilhoso
TTITLE5=Sessão Das 10
TTITLE6=Sociedade Alternativa
TTITLE7=O Trem Das 7
TTITLE8=S.O.S.
TTITLE9=Prelúdio
TTITLE10=Loteria Da Babilônia
TTITLE11=Gitâ
EXTD=
EXTT0=
EXTT1=
EXTT2=
EXTT3=
EXTT4=
EXTT5=
EXTT6=
EXTT7=
EXTT8=
EXTT9=
EXTT10=
EXTT11=
PLAYORDER=
